<svg width="40" height="49" viewBox="0 0 40 49" fill="none" xmlns="http://www.w3.org/2000/svg">
<path d="M33.061 26.1093C33.007 20.1137 37.9715 17.1968 38.1985 17.061C35.3869 12.9628 31.029 12.4029 29.4976 12.3583C25.8375 11.9732 22.2872 14.5478 20.4227 14.5478C18.521 14.5478 15.6498 12.3955 12.5554 12.4587C8.57338 12.5201 4.84814 14.825 2.80503 18.4041C-1.41145 25.7019 1.73323 36.4264 5.77294 42.3253C7.79372 45.2161 10.155 48.44 13.2457 48.3265C16.2695 48.2037 17.399 46.4011 21.0479 46.4011C24.6634 46.4011 25.724 48.3265 28.8761 48.254C32.1213 48.2037 34.1644 45.3519 36.1145 42.4369C38.4497 39.1275 39.3876 35.8646 39.4248 35.6972C39.3503 35.6711 33.1242 33.2937 33.061 26.1093ZM27.1065 8.47773C28.7328 6.44446 29.8456 3.67825 29.5367 0.871103C27.1828 0.975278 24.2391 2.49884 22.544 4.48746C21.0442 6.23983 19.7044 9.11208 20.0505 11.8132C22.6947 12.0104 25.4095 10.4794 27.1065 8.47773Z" fill="white"/>
</svg>
