<svg width="27" height="32" viewBox="0 0 27 32" fill="none" xmlns="http://www.w3.org/2000/svg">
<path d="M3.85714 2C1.72969 2 0 3.79375 0 6V26C0 28.2062 1.72969 30 3.85714 30H23.1429C25.2703 30 27 28.2062 27 26V6C27 3.79375 25.2703 2 23.1429 2H3.85714ZM21.7627 7.25L15.5069 14.6625L22.8656 24.75H17.104L12.596 18.6313L7.43103 24.75H4.5683L11.258 16.8188L4.20067 7.25H10.1069L14.1871 12.8438L18.9 7.25H21.7627ZM19.4846 22.975L9.24509 8.93125H7.53951L17.8935 22.975H19.4786H19.4846Z" fill="white"/>
</svg>
