<svg width="133" height="51" viewBox="0 0 133 51" fill="none" xmlns="http://www.w3.org/2000/svg">
<path d="M19.435 5.97H18.655C14.7983 5.97 11.7867 6.945 9.62 8.895C7.49667 10.8017 6.435 14.2033 6.435 19.1C6.435 20.7033 6.58667 21.83 6.89 22.48C7.19333 23.0867 7.345 23.4333 7.345 23.52C5.005 23.52 3.25 23.0433 2.08 22.09C0.953333 21.0933 0.39 19.4683 0.39 17.215C0.39 14.1383 1.14833 11.3433 2.665 8.83C4.18167 6.27333 6.58667 4.215 9.88 2.655C13.2167 1.095 17.4417 0.314999 22.555 0.314999C25.415 0.314999 28.4917 0.574998 31.785 1.095C34.5583 1.57167 37.0283 1.81 39.195 1.81C41.9683 1.81 44.4817 1.355 46.735 0.444997C46.6483 3.26166 45.9333 5.34166 44.59 6.685C43.2467 8.02833 41.2533 8.7 38.61 8.7C37.2233 8.7 35.8367 8.59167 34.45 8.375C33.0633 8.15833 31.0917 7.79 28.535 7.27L19.565 49H10.205L19.435 5.97ZM38.4439 49.26C37.0139 49.26 35.8006 48.7617 34.8039 47.765C33.8073 46.7683 33.3089 45.555 33.3089 44.125C33.3089 42.695 33.8073 41.4817 34.8039 40.485C35.8006 39.445 37.0139 38.925 38.4439 38.925C39.8739 38.925 41.0873 39.445 42.0839 40.485C43.1239 41.4817 43.6439 42.695 43.6439 44.125C43.6439 45.555 43.1239 46.7683 42.0839 47.765C41.0873 48.7617 39.8739 49.26 38.4439 49.26ZM73.5241 50.105C71.7908 50.105 70.2741 49.7367 68.9741 49C67.7175 48.3067 67.0891 47.0717 67.0891 45.295C67.0891 44.1683 67.3708 42.9117 67.9341 41.525C68.7141 42.3917 69.4291 42.9983 70.0791 43.345C70.7725 43.6917 71.5091 43.865 72.2891 43.865C74.4558 43.865 76.0591 42.6517 77.0991 40.225C78.1825 37.7983 78.7241 35.1117 78.7241 32.165C78.7241 26.6617 76.6658 23.91 72.5491 23.91C71.3791 23.91 70.3825 23.975 69.5591 24.105L64.2291 49H54.8691L63.7091 7.66L73.3291 6.36L70.2741 20.79H70.6641C72.3108 20.79 73.8491 20.27 75.2791 19.23C76.7091 18.1467 77.8575 16.8033 78.7241 15.2C79.5908 13.5533 80.0241 11.9067 80.0241 10.26C80.0241 8.26667 79.3091 6.59833 77.8791 5.255C76.4925 3.91166 74.3475 3.24 71.4441 3.24C68.8008 3.24 66.2225 3.84666 63.7091 5.06C61.1958 6.23 59.1375 8.00666 57.5341 10.39C55.9741 12.7733 55.1941 15.655 55.1941 19.035C55.1941 20.6383 55.3458 21.765 55.6491 22.415C55.9525 23.0217 56.1041 23.3683 56.1041 23.455C53.8075 23.455 52.0741 23 50.9041 22.09C49.7341 21.1367 49.1491 19.5983 49.1491 17.475C49.1491 14.5283 50.2541 11.7333 52.4641 9.09C54.6741 6.44667 57.5991 4.32333 61.2391 2.72C64.8791 1.07333 68.7141 0.249996 72.7441 0.249996C75.7775 0.249996 78.3341 0.726663 80.4141 1.68C82.4941 2.63333 84.0325 3.89 85.0291 5.45C86.0691 7.01 86.5891 8.72167 86.5891 10.585C86.5891 12.5783 86.0258 14.5067 84.8991 16.37C83.7725 18.2333 82.1691 19.75 80.0891 20.92C82.6891 21.3967 84.6175 22.61 85.8741 24.56C87.1308 26.4667 87.7591 28.7417 87.7591 31.385C87.7591 33.855 87.2825 36.5417 86.3291 39.445C85.4191 42.3483 83.8808 44.8617 81.7141 46.985C79.5908 49.065 76.8608 50.105 73.5241 50.105ZM108.665 49.39C105.025 49.39 102.165 48.35 100.085 46.27C98.0481 44.19 97.0298 40.875 97.0298 36.325C97.0298 32.4683 97.7231 28.135 99.1098 23.325C100.496 18.515 102.511 14.3983 105.155 10.975C107.841 7.55166 111.005 5.84 114.645 5.84C115.945 5.84 117.071 6.01333 118.025 6.36C116.118 7.48666 114.276 9.805 112.5 13.315C110.766 16.825 109.358 20.7467 108.275 25.08C107.191 29.4133 106.65 33.2483 106.65 36.585C106.65 38.925 106.953 40.7667 107.56 42.11C108.166 43.4533 109.12 44.125 110.42 44.125C112.543 44.125 114.645 42.6083 116.725 39.575C118.848 36.4983 120.581 32.6417 121.925 28.005C123.311 23.3683 124.005 18.905 124.005 14.615C124.005 11.9283 123.766 9.78333 123.29 8.18C122.856 6.53333 122.033 5.29833 120.82 4.475C119.606 3.65166 117.895 3.24 115.685 3.24C112.348 3.24 109.25 3.93333 106.39 5.32C103.53 6.66333 101.233 8.61333 99.4998 11.17C97.8098 13.6833 96.9648 16.6083 96.9648 19.945C96.9648 21.115 97.0731 21.9817 97.2898 22.545C97.5064 23.065 97.6148 23.3683 97.6148 23.455C95.4481 23.455 93.8014 23.0217 92.6748 22.155C91.5914 21.2883 91.0498 19.9017 91.0498 17.995C91.0498 15.005 92.2631 12.145 94.6898 9.415C97.1598 6.685 100.41 4.475 104.44 2.785C108.513 1.095 112.781 0.249996 117.245 0.249996C122.661 0.249996 126.583 1.72333 129.01 4.67C131.436 7.61666 132.65 11.69 132.65 16.89C132.65 21.5267 131.783 26.3583 130.05 31.385C128.316 36.4117 125.63 40.68 121.99 44.19C118.393 47.6567 113.951 49.39 108.665 49.39Z" fill="white"/>
</svg>
