<svg width="128" height="128" viewBox="0 0 128 128" fill="none" xmlns="http://www.w3.org/2000/svg">
<g clip-path="url(#clip0_58_18)">
<path d="M10.1363 50.189C10.0626 50.2542 9.96946 50.304 9.91513 50.3807C9.29422 51.27 8.6772 52.1632 8.06405 53.0563C7.40433 54.0185 6.73686 54.9768 6.09654 55.9466C5.75892 56.4602 5.46399 57.0046 5.14966 57.5374C4.74607 58.2159 4.33859 58.8944 3.93888 59.5767C3.74873 59.9025 3.56634 60.236 3.38783 60.5695C2.98424 61.3285 2.58841 62.0875 2.1887 62.8464C2.15765 62.9039 2.1072 62.9538 2.04123 63.0381C1.98302 62.8771 1.92869 62.7583 1.88989 62.6318C1.34271 60.8225 0.818818 59.0094 0.469557 57.1502C0.20567 55.7473 0.0504432 54.329 0.135818 52.8991C0.221193 51.4847 0.551051 50.12 1.01285 48.7822C1.82391 46.4286 3.18215 44.4162 4.84308 42.5839C6.81835 40.4066 9.11183 38.6049 11.5722 36.9988C13.0042 36.0597 14.4245 35.1013 15.7633 34.0319C16.6792 33.2997 17.5717 32.5292 18.3401 31.6323C18.5962 31.3333 18.8213 31.0151 18.9571 30.6203C18.9144 30.6509 18.864 30.6778 18.8291 30.7161C17.6726 32.0041 16.2639 32.9701 14.7543 33.798C14.149 34.1315 13.5125 34.4075 12.8877 34.7104C12.5307 34.8829 12.1737 35.0592 11.8089 35.224C11.6382 35.3007 11.4558 35.339 11.2695 35.3965C11.0987 35.1282 11.0366 34.8599 10.9862 34.5954C10.8543 33.9015 10.5904 33.2499 10.3381 32.5944C10.1014 31.9849 9.83364 31.3908 9.48826 30.8349C9.18945 30.3558 8.87123 29.8843 8.56077 29.4128C8.01748 28.5963 7.48195 27.7798 6.92313 26.9749C6.38371 26.1967 6.07326 25.3266 5.89863 24.4104C5.70071 23.3678 5.78609 22.329 6.11595 21.317C6.36431 20.5503 6.64372 19.7952 6.92701 19.04C7.03955 18.741 7.08224 18.4497 7.00074 18.1392C6.7873 17.3457 6.58163 16.5484 6.36819 15.7511C6.3061 15.5211 6.23237 15.2988 6.15087 15.0419C5.49504 15.2566 4.89741 15.5173 4.33083 15.8393C3.72933 16.1804 3.16663 16.5867 2.65826 17.0582C2.35557 17.3381 2.08004 17.6486 1.80063 17.9475C1.62212 18.1392 1.43197 18.3079 1.1642 18.3654C0.911954 18.419 0.768369 18.3424 0.698517 18.0932C0.597619 17.7405 0.71404 17.3994 0.865386 17.1042C1.04778 16.7439 1.28838 16.3797 1.58331 16.1076C2.2275 15.5173 2.91439 14.9653 3.61291 14.4363C3.92336 14.1986 4.29979 14.0453 4.64905 13.8575C4.95562 13.6926 5.2622 13.5355 5.58429 13.3668C5.60758 13.0908 5.4834 12.8378 5.42519 12.5772C5.37862 12.3778 5.31653 12.1785 5.26608 11.9792C5.16518 11.6073 5.18458 11.5307 5.47952 11.3237C5.92191 11.0094 6.39148 10.7755 6.96582 10.7755C7.38881 10.7755 7.71479 10.9404 7.94763 11.2547C8.14942 11.5307 8.30853 11.8373 8.47928 12.1363C8.58794 12.3242 8.65003 12.3625 8.85183 12.305C9.86856 12.0137 10.8853 11.7338 11.8943 11.4348C12.7131 11.1895 13.4776 10.8254 14.1567 10.304C14.4167 10.1047 14.6573 9.88238 14.8824 9.64855C15.5848 8.92023 16.4036 8.41041 17.432 8.26091C17.4825 8.25325 17.529 8.23025 17.6105 8.19958C17.6105 8.08842 17.6144 7.96959 17.6105 7.85076C17.564 6.97677 17.5484 6.09896 17.4592 5.22881C17.401 4.66532 17.661 4.27816 18.0141 3.914C18.4099 3.50385 18.7708 3.07069 19.0619 2.5762C19.3529 2.08171 19.3374 1.62172 18.9688 1.20006C18.8756 1.09273 18.7165 1.02757 18.5729 0.970066C18.3789 0.893401 18.181 0.82057 17.9753 0.79757C17.3428 0.720905 16.8965 1.1579 16.943 1.78272C16.9508 1.90155 16.9819 2.02038 16.9702 2.13538C16.9469 2.3807 16.7956 2.54553 16.5977 2.57237C16.3687 2.5992 16.1708 2.5187 16.0777 2.31171C16.0078 2.16221 15.9612 1.98205 15.9729 1.82105C16.0311 1.0429 16.4929 0.544575 17.172 0.214916C18.3013 -0.329406 19.5159 0.283914 20.0127 1.12723C20.2533 1.53355 20.2339 1.98971 20.0942 2.4267C19.8613 3.15885 19.4965 3.82201 18.9183 4.3395C18.5302 4.68449 18.3556 5.04098 18.4332 5.59297C18.538 6.33279 18.4953 7.09177 18.5186 7.84309C18.5186 7.92742 18.538 8.00792 18.5458 8.09608C18.9571 8.15358 19.3491 8.20341 19.741 8.26858C19.873 8.29158 20.0165 8.32991 20.1291 8.39891C20.6413 8.71324 21.1924 8.97007 21.662 9.34572C22.0384 9.64855 22.3838 9.99738 22.7951 10.2465C23.3229 10.5685 23.7808 11.0132 24.3862 11.2049C24.4522 11.224 24.5143 11.2624 24.5725 11.2968C25.4107 11.7607 26.311 12.0635 27.2113 12.3702C27.4869 12.4622 27.7585 12.5618 28.0728 12.673C28.2242 12.3127 28.3833 11.9945 28.4997 11.6572C28.62 11.3045 28.8335 11.1129 29.2215 11.1129C29.5863 11.1129 29.9511 11.0784 30.3159 11.0899C30.5215 11.0937 30.735 11.132 30.9251 11.201C31.2356 11.3122 31.3481 11.523 31.2938 11.8488C31.2356 12.2053 31.1541 12.5542 31.0842 12.9068C31.0532 13.0716 31.0222 13.2365 30.9911 13.4051C31.4102 13.5585 31.7944 13.7003 32.1786 13.8383C32.9198 14.099 33.564 14.5129 34.2082 14.9576C34.8679 15.4138 35.2987 16.0386 35.7488 16.6634C36.0127 17.0276 35.9778 17.4109 35.8924 17.798C35.8148 18.1545 35.4733 18.2465 35.2288 17.9744C34.9145 17.6294 34.6079 17.2767 34.2276 17.0046C33.6416 16.5829 33.0673 16.1382 32.3959 15.8508C31.8565 15.6208 31.3171 15.3946 30.7738 15.1723C30.7117 15.1454 30.638 15.1454 30.5448 15.1301C30.312 15.7166 30.2189 16.3184 30.1606 16.9356C30.0869 17.6907 30.1606 18.442 30.1606 19.1934C30.1684 20.2245 30.1723 21.2518 30.0675 22.2791C30.0442 22.5168 30.0054 22.7544 29.9511 22.9883C29.7493 23.8546 29.5669 24.7324 29.3147 25.5872C29.1361 26.1929 28.8412 26.764 28.6161 27.3582C28.263 28.2858 27.9137 29.2173 27.7119 30.1948C27.646 30.5129 27.6072 30.8426 27.6266 31.1646C27.6809 32.0539 27.7779 32.9432 27.8439 33.8325C27.8749 34.258 27.8555 34.6912 27.8827 35.1167C27.9681 36.5733 28.0534 38.03 28.1582 39.4866C28.2242 40.3759 28.3134 41.2614 28.4182 42.143C28.5191 42.994 28.6317 43.845 28.7714 44.6922C28.9343 45.6888 29.1555 46.6778 29.3069 47.6744C29.4272 48.4717 29.6251 49.2499 29.7881 50.0357C29.9162 50.6567 30.083 51.27 30.2383 51.8833C30.3935 52.5005 30.5526 53.1138 30.7117 53.7271C30.8669 54.3251 31.0144 54.9231 31.1929 55.5134C31.4451 56.3491 31.7284 57.1771 31.9884 58.0089C32.0389 58.1699 32.0505 58.3462 32.1049 58.5072C32.2601 58.9787 32.4231 59.4463 32.5861 59.914C32.8538 60.673 33.1138 61.4396 33.3971 62.191C33.6533 62.8656 33.9327 63.5288 34.2082 64.1957C34.6001 65.1502 34.9921 66.1009 35.3957 67.0515C35.6091 67.5575 35.842 68.0558 36.0709 68.558C36.4047 69.2901 36.7384 70.0261 37.0838 70.7544C37.3942 71.4023 37.728 72.0424 38.0501 72.6902C38.3411 73.2729 38.6205 73.8632 38.9232 74.4382C39.1483 74.8599 39.4005 75.27 39.6411 75.684C39.9089 76.144 40.1767 76.604 40.4444 77.0678C40.5647 77.2748 40.6773 77.4895 40.8015 77.6965C41.108 78.214 41.4767 78.6931 41.6979 79.2604C41.7872 79.4943 41.9812 79.6898 42.117 79.9082C42.2528 80.1267 42.3809 80.3491 42.509 80.5714C42.5361 80.6174 42.5478 80.6711 42.5749 80.7094C42.9514 81.2652 43.3278 81.8172 43.712 82.3692C43.9759 82.7487 44.3018 83.0975 44.5036 83.5077C44.7287 83.9638 45.0741 84.3242 45.3613 84.7266C45.7726 85.3016 46.2034 85.8613 46.6419 86.4171C47.0571 86.9423 47.4956 87.4483 47.9225 87.9619C48.2873 88.3989 48.6482 88.8359 49.0091 89.2767C49.3661 89.7175 49.7154 90.1622 50.1306 90.557C50.4411 90.8522 50.705 91.1933 50.9921 91.5115C51.062 91.5882 51.1241 91.684 51.2095 91.73C51.6868 91.983 51.9545 92.4392 52.3038 92.8186C52.3969 92.9221 52.4823 93.0333 52.591 93.1138C53.1149 93.4933 53.4952 94.0146 53.9725 94.4363C54.4498 94.8579 54.8379 95.3678 55.3618 95.7434C55.6373 95.9427 55.8624 96.2072 56.1146 96.4449C56.1379 96.4679 56.1612 96.4986 56.1923 96.5139C56.8597 96.8474 57.275 97.4722 57.8571 97.9015C57.9114 97.9437 57.9541 98.0012 58.0123 98.0395C58.606 98.4535 59.1998 98.8675 59.7935 99.2815C59.8634 99.3313 59.9449 99.3697 60.0031 99.431C60.4649 99.9063 61.0703 100.19 61.5864 100.589C62.2189 101.075 62.933 101.436 63.5811 101.896C64.1166 102.271 64.6754 102.616 65.2459 102.938C65.9677 103.345 66.7167 103.701 67.4462 104.096C67.8731 104.326 68.2806 104.587 68.6958 104.832C68.7695 104.874 68.8355 104.951 68.9131 104.97C69.4991 105.112 69.9725 105.476 70.5042 105.725C70.737 105.836 70.9815 105.921 71.2182 106.028C71.8314 106.308 72.4368 106.603 73.0538 106.875C73.5428 107.09 74.0317 107.316 74.5673 107.412C74.7031 107.435 74.8544 107.462 74.9592 107.542C75.2503 107.764 75.5995 107.791 75.9294 107.883C76.3446 107.998 76.7715 108.09 77.1246 108.359C77.2023 108.42 77.3109 108.451 77.4118 108.474C77.8348 108.569 78.2578 108.654 78.6769 108.753C79.065 108.849 79.4647 108.922 79.8256 109.079C80.1554 109.221 80.4969 109.236 80.8307 109.321C81.1838 109.409 81.537 109.486 81.894 109.566C82.2471 109.647 82.5964 109.731 82.9961 109.827C82.5964 110.018 82.22 110.202 81.8397 110.383C80.5552 110.992 79.228 111.479 77.8853 111.954C76.2631 112.529 74.6022 112.943 72.9141 113.261C72.235 113.388 71.5403 113.434 70.8535 113.514C70.6827 113.534 70.512 113.572 70.3412 113.587C69.9299 113.622 69.5185 113.656 69.1072 113.679C68.6764 113.702 68.2418 113.741 67.811 113.729C67.225 113.714 66.6352 113.652 66.0492 113.61C65.9793 113.606 65.9095 113.587 65.8435 113.587C64.5163 113.587 63.2163 113.353 61.924 113.093C61.0974 112.928 60.2747 112.713 59.4559 112.51C58.7845 112.345 58.1404 112.1 57.4962 111.855C56.3358 111.41 55.1833 110.946 54.0773 110.371C53.4641 110.053 52.8161 109.8 52.199 109.489C51.6325 109.202 51.0853 108.876 50.5303 108.562C50.0957 108.316 49.6921 108.006 49.2575 107.772C48.7957 107.527 48.4192 107.17 47.9497 106.944C47.8294 106.887 47.744 106.76 47.6353 106.68C47.4724 106.557 47.2977 106.446 47.1347 106.323C46.7661 106.043 46.3664 105.817 46.052 105.461C45.827 105.212 45.4855 105.066 45.2487 104.824C45.0081 104.579 44.8025 104.307 44.4609 104.188C44.4183 104.123 44.3795 104.058 44.3368 103.996C44.3135 104.016 44.2941 104.039 44.2708 104.058C44.3329 104.1 44.3989 104.142 44.4609 104.188C44.6938 104.502 44.9111 104.828 45.1672 105.127C45.5359 105.557 45.9278 105.971 46.3237 106.381C46.7894 106.864 47.255 107.343 47.7401 107.807C48.1748 108.224 48.6172 108.631 49.079 109.014C49.727 109.555 50.3945 110.072 51.0581 110.597C51.5316 110.973 52.0438 111.303 52.5095 111.674C53.1886 112.219 53.9415 112.633 54.6594 113.112C55.5519 113.706 56.4872 114.231 57.4418 114.722C58.2568 115.14 59.0795 115.554 59.9177 115.925C61.0082 116.408 62.1064 116.872 63.2163 117.309C64.6483 117.873 66.0919 118.409 67.5782 118.808C68.8006 119.134 70.0385 119.406 71.2997 119.54C71.8508 119.598 72.3941 119.72 72.949 119.778C73.9464 119.881 74.9476 119.958 75.9798 120.05C75.9216 120.115 75.8712 120.2 75.8013 120.253C75.2386 120.656 74.6526 121.02 74.0279 121.323C73.6708 121.495 73.3371 121.714 72.9878 121.902C72.6386 122.089 72.2816 122.27 71.9284 122.45C71.4821 122.676 71.0164 122.868 70.5896 123.136C70.3179 123.308 69.9881 123.396 69.6815 123.515C68.8122 123.856 67.9546 124.232 67.0698 124.523C66.3169 124.773 65.5292 124.922 64.7569 125.114C64.6405 125.144 64.5163 125.16 64.3999 125.194C63.6121 125.424 62.8049 125.516 61.99 125.558C61.7998 125.57 61.6136 125.62 61.4234 125.647C61.1673 125.681 60.9073 125.704 60.6511 125.739C60.4804 125.758 60.3135 125.788 60.1428 125.811C60.0574 125.823 59.972 125.842 59.8867 125.842C59.4171 125.846 58.9514 125.857 58.4818 125.842C57.9618 125.831 57.4457 125.796 56.9257 125.769C56.8753 125.769 56.8209 125.75 56.7705 125.758C56.0331 125.834 55.323 125.639 54.5973 125.566C54.5468 125.562 54.4925 125.547 54.4421 125.547C53.7435 125.574 53.0528 125.432 52.3814 125.302C51.6053 125.152 50.8097 125.026 50.0802 124.677C49.7736 124.531 49.4321 124.451 49.1139 124.328C48.3727 124.037 47.6315 123.745 46.898 123.439C46.3702 123.22 45.8502 122.983 45.3341 122.741C44.4415 122.319 43.6033 121.802 42.7457 121.319C42.1558 120.989 41.597 120.625 41.046 120.23C40.4328 119.789 39.7653 119.414 39.1638 118.961C38.0617 118.137 36.9596 117.313 35.9351 116.389C35.2055 115.73 34.5264 115.032 33.8434 114.327C33.0129 113.476 32.2329 112.579 31.4723 111.671C30.9213 111.011 30.3857 110.337 29.8735 109.643C29.3108 108.884 28.7869 108.098 28.2436 107.324C28.2164 107.285 28.1699 107.258 28.0845 107.182C28.1233 107.35 28.1388 107.465 28.1815 107.573C28.5114 108.401 28.8296 109.229 29.1827 110.045C29.4776 110.724 29.8153 111.379 30.1296 112.046C30.7001 113.258 31.3559 114.419 32.035 115.577C32.5046 116.378 33.0052 117.156 33.5019 117.938C33.8124 118.429 34.1189 118.927 34.4876 119.383C34.9184 119.916 35.287 120.499 35.7139 121.035C36.2688 121.737 36.8315 122.434 37.4369 123.098C38.3683 124.117 39.3268 125.11 40.2892 126.099C40.8209 126.639 41.3913 127.145 41.9424 127.667C42.0278 127.747 42.1015 127.832 42.2412 127.981C42.0782 127.981 41.9967 127.985 41.9191 127.981C39.7692 127.812 37.6193 127.655 35.516 127.153C33.2147 126.605 30.9756 125.865 28.8257 124.876C27.1221 124.09 25.4805 123.193 23.9399 122.124C22.4691 121.104 21.1148 119.95 19.8303 118.712C18.4216 117.355 17.1099 115.91 15.9612 114.331C14.7854 112.706 13.7842 110.981 12.9188 109.179C12.0456 107.362 11.2967 105.495 10.6757 103.582C9.9617 101.374 9.39124 99.1282 9.01093 96.8359C8.91004 96.2264 8.88287 95.6093 8.84018 94.9921C8.77421 94.1219 8.70048 93.2518 8.67332 92.3778C8.64227 91.385 8.65391 90.3922 8.65003 89.3994C8.65003 89.0237 8.65003 88.6442 8.65003 88.1957C8.44824 88.4219 8.42495 88.6519 8.38226 88.8589C8.23092 89.6332 8.08733 90.4075 7.96315 91.1857C7.76912 92.42 7.59449 93.662 7.41209 94.8963C7.30343 95.6399 7.19866 96.3874 7.10164 97.1349C7.05119 97.5259 7.02015 97.9207 6.9891 98.3117C6.85716 99.9178 6.73686 101.528 6.72521 103.138C6.71745 104.368 6.74462 105.603 6.77178 106.833C6.79119 107.761 6.83775 108.684 6.8688 109.608C6.87268 109.762 6.8688 109.915 6.8688 110.068C6.58163 110.141 6.45745 109.972 6.35655 109.788C6.18968 109.486 6.04221 109.175 5.88699 108.872C5.50668 108.14 5.11861 107.416 4.74607 106.68C4.52875 106.254 4.32695 105.817 4.12128 105.384C3.90008 104.92 3.675 104.46 3.4538 103.996C3.41111 103.904 3.36454 103.809 3.32574 103.713C2.79797 102.409 2.27407 101.106 1.87436 99.7568C1.34659 97.9744 0.927477 96.1727 0.620903 94.3404C0.333733 92.6116 0.120295 90.8714 0.0388011 89.1234C-0.0155284 87.9044 -0.0194091 86.6854 -0.00388637 85.4665C0.0116364 84.1632 0.0504432 82.856 0.128057 81.5527C0.314329 78.4286 0.686875 75.3313 1.38928 72.2762C2.05287 69.3783 2.8911 66.5264 3.85351 63.7128C4.20665 62.6739 4.59084 61.6466 5.01771 60.6347C5.54549 59.3888 6.05386 58.1354 6.65924 56.9202C7.08224 56.0769 7.46642 55.2144 7.87778 54.3673C8.04852 54.0108 8.24256 53.6696 8.43271 53.3246C8.96437 52.3625 9.46497 51.385 10.0471 50.4535C10.0975 50.3769 10.0898 50.2619 10.1092 50.166C10.2528 50.1124 10.3226 50.0089 10.3187 49.8555C10.3498 49.8249 10.3808 49.798 10.4119 49.7674C10.3925 49.752 10.3769 49.7405 10.3575 49.7252C10.3498 49.7712 10.342 49.821 10.3304 49.867C10.1907 49.9207 10.1247 50.028 10.1208 50.1737L10.1363 50.189ZM9.20109 14.0606C9.34467 14.4785 9.46497 14.8503 9.59692 15.2221C9.81423 15.8393 10.0354 16.4526 10.2489 17.0697C10.3304 17.3036 10.4429 17.4991 10.6913 17.6026C11.0561 17.7559 11.4092 17.9399 11.7779 18.0894C12.4647 18.3692 13.1516 18.649 13.854 18.8944C14.3119 19.0515 14.7893 19.1474 15.2627 19.2662C15.515 19.3313 15.7633 19.4042 16.0194 19.4387C16.5511 19.5153 17.0866 19.5805 17.6222 19.6342C18.1538 19.684 18.6932 19.7683 19.2249 19.7415C19.9156 19.7032 20.5986 19.5575 21.2894 19.4808C22.702 19.3198 24.0369 18.9135 25.3137 18.3117C26.0238 17.9782 26.5671 17.4684 26.9203 16.7631C27.2695 16.0654 27.4519 15.3179 27.6498 14.5704C27.6731 14.4784 27.6692 14.375 27.677 14.2523C27.4597 14.1871 27.2618 14.1258 27.0639 14.076C26.7767 14.0031 26.4818 13.961 26.2062 13.869C24.945 13.4435 23.6527 13.1176 22.4264 12.581C21.5572 12.2015 20.6569 11.8872 19.7643 11.5537C19.5082 11.4578 19.2365 11.3735 18.961 11.3467C18.5496 11.3045 18.1305 11.2969 17.7192 11.3083C17.5174 11.3122 17.3001 11.3582 17.1216 11.4502C16.5239 11.7645 15.9418 12.0903 15.2744 12.2628C14.6573 12.4238 14.0713 12.6845 13.4621 12.8762C12.9188 13.0448 12.36 13.179 11.8128 13.3323C10.9629 13.57 10.1169 13.8115 9.20497 14.0683L9.20109 14.0606ZM10.6951 49.3841L10.7184 49.3419H10.6874L10.6951 49.3841Z" fill="#DEDEDE"/>
</g>
<path d="M42.116 56V43.364H50.342V45.83H45.194V48.494H49.046V50.888H45.194V56H42.116ZM60.5818 56L59.8258 53.768H55.1098L54.3538 56H51.1318L55.7038 43.364H59.2678L63.8398 56H60.5818ZM59.0338 51.392L57.4678 46.766L55.9198 51.392H59.0338ZM74.4112 52.238C74.4112 54.362 72.7552 56.126 69.8032 56.126C67.0852 56.126 64.9612 54.776 64.8712 52.22H68.1472C68.2372 53.192 68.8492 53.66 69.7132 53.66C70.6132 53.66 71.1892 53.21 71.1892 52.472C71.1892 50.132 64.8712 51.392 64.9072 46.91C64.9072 44.516 66.8692 43.184 69.5152 43.184C72.2692 43.184 74.1232 44.552 74.2492 46.964H70.9192C70.8652 46.154 70.2892 45.668 69.4612 45.65C68.7232 45.632 68.1652 46.01 68.1652 46.802C68.1652 48.998 74.4112 48.008 74.4112 52.238ZM84.1715 56V50.798H79.3835V56H76.3055V43.364H79.3835V48.314H84.1715V43.364H87.2495V56H84.1715ZM89.4715 56V43.364H92.5495V56H89.4715ZM107.218 49.646C107.218 53.444 104.338 56.126 100.756 56.126C97.1741 56.126 94.2581 53.444 94.2581 49.646C94.2581 45.848 97.1741 43.184 100.756 43.184C104.356 43.184 107.218 45.848 107.218 49.646ZM97.4081 49.646C97.4081 51.86 98.7041 53.318 100.756 53.318C102.772 53.318 104.086 51.86 104.086 49.646C104.086 47.396 102.772 45.974 100.756 45.974C98.7041 45.974 97.4081 47.396 97.4081 49.646ZM117.156 43.364H120.234V56H117.156L112.008 48.206V56H108.93V43.364H112.008L117.156 51.194V43.364Z" fill="#DEDEDE"/>
<path d="M81.74 77.017L78.442 65.117H79.717L82.437 75.538L85.48 65.117H86.806L89.764 75.538L92.501 65.117H93.776L90.41 77H89.084L86.092 66.868L83.032 77L81.74 77.017ZM101.801 65.1V66.086H96.7863V70.523H101.291V71.509H96.7863V76.014H101.801V77H95.5963V65.1H101.801ZM110.351 65.1V66.086H105.336V70.523H109.841V71.509H105.336V76.014H110.351V77H104.146V65.1H110.351ZM119.037 77L113.886 71.509V77H112.696V65.117H113.886V70.676L119.037 65.117H120.55L114.991 71.05L120.601 77H119.037Z" fill="#DEDEDE"/>
<defs>
<clipPath id="clip0_58_18">
<rect width="83" height="128" fill="white"/>
</clipPath>
</defs>
</svg>
