<svg width="64" height="57" viewBox="0 0 64 57" fill="none" xmlns="http://www.w3.org/2000/svg">
<path d="M23.4967 4.6781L13.8473 13.169" stroke="white" stroke-width="4" stroke-miterlimit="10" stroke-linecap="round" stroke-linejoin="round"/>
<path d="M40.503 4.6781L50.1524 13.169" stroke="white" stroke-width="4" stroke-miterlimit="10" stroke-linecap="round" stroke-linejoin="round"/>
<path d="M5.34434 18.3618C5.34434 14.0345 7.98325 13.6836 11.2619 13.6836H52.7381C56.0167 13.6836 58.6556 14.0345 58.6556 18.3618C58.6556 23.3908 56.0167 23.04 52.7381 23.04H11.2619C7.98325 23.04 5.34434 23.3908 5.34434 18.3618Z" stroke="white" stroke-width="4"/>
<path d="M26.0291 32.7472V41.051" stroke="white" stroke-width="4" stroke-linecap="round"/>
<path d="M38.2907 32.7472V41.051" stroke="white" stroke-width="4" stroke-linecap="round"/>
<path d="M9.34268 23.391L13.1011 43.6007C13.9541 48.1386 16.0066 51.4601 23.6301 51.4601H39.7035C47.9934 51.4601 49.2195 48.2789 50.1791 43.8814L54.6573 23.391" stroke="white" stroke-width="4" stroke-linecap="round"/>
</svg>
