<svg width="62" height="62" viewBox="0 0 62 62" fill="none" xmlns="http://www.w3.org/2000/svg">
<path d="M43.1546 25.6137C42.6527 21.6046 43.2279 17.534 44.8208 13.8208C45.0533 13.3558 45.4925 12.8133 45.0533 12.3096C44.6142 11.8058 44.0071 12.1546 43.4904 12.3096C42.1583 12.6971 40.921 13.3562 39.8561 14.2454C38.7913 15.1346 37.9221 16.2346 37.3033 17.4762C36.9546 18.0833 36.7092 18.6904 35.7662 18.5612C32.5838 18.146 29.365 18.0853 26.1692 18.3804C23.7725 18.5249 21.4322 19.1671 19.2975 20.2662C16.0059 22.0781 13.4246 24.9508 11.9737 28.4167C11.9033 28.2462 11.8513 28.0686 11.8187 27.8871C11.4571 26.2079 10.5271 25.3037 9.06749 25.5233H9.04166C8.7086 25.5653 8.3876 25.6747 8.09832 25.845C7.80903 26.0153 7.55754 26.2428 7.35924 26.5137C7.16093 26.7845 7.01999 27.093 6.94504 27.4202C6.87008 27.7474 6.86269 28.0865 6.92332 28.4167C6.84536 29.846 7.11484 31.2729 7.70869 32.5754C8.30255 33.8778 9.20312 35.017 10.3333 35.8954C10.7448 36.1772 11.0389 36.5999 11.16 37.0837C11.9192 40.2798 13.6742 43.152 16.1717 45.2858C16.6231 45.6554 16.977 46.1302 17.2022 46.6684C17.4274 47.2066 17.5171 47.7919 17.4633 48.3729C17.1146 51.8863 18.5096 53.6687 22.3329 54.1854C22.6266 54.2547 22.9243 54.3065 23.2242 54.3404C25.8075 54.87 25.5233 54.8571 26.0012 52.5063C26.3242 50.9304 26.9571 50.4654 28.5846 50.7108C29.9025 50.8916 31.2337 50.9564 32.5629 50.9046C35.7533 50.9046 35.7662 50.9046 36.6317 53.8883C36.7867 54.4308 36.9029 55.025 37.665 54.8829C39.4332 54.7156 41.171 54.3115 42.8317 53.6817C43.4619 53.4683 44.0128 53.0689 44.4117 52.5363C44.8106 52.0037 45.0388 51.3628 45.0662 50.6979C44.795 47.9467 45.6862 46.8229 47.3396 44.7692C47.5721 44.4979 48.0629 44.02 48.3342 43.6325C48.8226 42.8564 49.4908 42.2095 50.2822 41.7463C51.0737 41.2832 51.965 41.0175 52.8808 40.9717C54.4437 40.8942 55.1412 40.4162 55.1412 38.6208V33.1958C55.1994 32.6347 55.034 32.0733 54.681 31.6332C54.328 31.1932 53.8158 30.91 53.2554 30.845C52.3715 30.6688 51.5448 30.2771 50.8486 29.7048C50.1524 29.1325 49.6081 28.3972 49.2642 27.5642C47.8914 24.8727 45.7755 22.6313 43.1675 21.1058M45.2729 35.1333C44.6617 35.0967 44.0899 34.8191 43.6831 34.3615C43.2763 33.9038 43.0676 33.3034 43.1029 32.6921C43.1363 32.0912 43.4066 31.528 43.8545 31.1261C44.3024 30.7241 44.8915 30.5162 45.4925 30.5479C45.8058 30.5499 46.1154 30.6155 46.4025 30.7408C46.6896 30.8661 46.9483 31.0485 47.1628 31.2768C47.3773 31.5051 47.5432 31.7746 47.6504 32.069C47.7575 32.3634 47.8038 32.6765 47.7862 32.9893C47.7687 33.3021 47.6878 33.608 47.5484 33.8886C47.409 34.1692 47.2141 34.4185 46.9754 34.6214C46.7368 34.8243 46.4593 34.9766 46.16 35.0691C45.8607 35.1615 45.5457 35.1922 45.2342 35.1592L45.2729 35.1333Z" stroke="white" stroke-width="2.7" stroke-linecap="round" stroke-linejoin="round"/>
<path d="M21.8808 19.1425C20.8389 18.469 20.0284 17.4926 19.5583 16.3445C19.0882 15.1964 18.9811 13.9319 19.2514 12.7212C19.5217 11.5104 20.1565 10.4115 21.0702 9.57241C21.984 8.73332 23.1329 8.19433 24.3623 8.02798C25.5917 7.86162 26.8425 8.0759 27.9464 8.64197C29.0503 9.20804 29.9543 10.0987 30.5367 11.1941C31.119 12.2895 31.3519 13.537 31.2038 14.7687C31.0557 16.0004 30.5338 17.1572 29.7083 18.0833" stroke="white" stroke-width="2.7" stroke-linecap="round" stroke-linejoin="round"/>
</svg>
