<svg width="42" height="47" viewBox="0 0 42 47" fill="none" xmlns="http://www.w3.org/2000/svg">
<path d="M19.5978 22.4487L0.275604 43.0715C0.277387 43.0749 0.277386 43.0806 0.279321 43.084C0.87263 45.3235 2.90522 46.9715 5.31896 46.9715C6.28444 46.9715 7.19007 46.7087 7.96682 46.2488L8.02845 46.2122L29.7773 33.5924L19.5978 22.4487Z" fill="#D3D3D3"/>
<path d="M39.1453 18.9373L39.1271 18.9243L29.7371 13.4511L19.1586 22.9175L29.775 33.5902L39.1142 28.1718C40.7511 27.2809 41.8638 25.5456 41.8638 23.5452C41.8638 21.5559 40.7674 19.8297 39.1453 18.9373Z" fill="#D8D8D8"/>
<path d="M0.275291 3.93052C0.159011 4.3611 0.0973816 4.81381 0.0973816 5.28101V41.7228C0.0973816 42.19 0.159011 42.6425 0.277074 43.0715L20.2617 22.9762L0.275291 3.93052Z" fill="white"/>
<path d="M19.7407 23.5017L29.7401 13.4476L8.01688 0.782162C7.22742 0.305809 6.30548 0.0319767 5.32002 0.0319767C2.90639 0.0319767 0.870123 1.68376 0.276624 3.92479C0.276624 3.92669 0.274841 3.9286 0.274841 3.93051L19.7407 23.5017Z" fill="#E6E6E6"/>
</svg>
